<?xml version="1.0" encoding="UTF-8" standalone="no"?>
<!-- Created with Inkscape (http://www.inkscape.org/) -->

<svg
   xmlns:dc="http://purl.org/dc/elements/1.1/"
   xmlns:cc="http://creativecommons.org/ns#"
   xmlns:rdf="http://www.w3.org/1999/02/22-rdf-syntax-ns#"
   xmlns:svg="http://www.w3.org/2000/svg"
   xmlns="http://www.w3.org/2000/svg"
   xmlns:sodipodi="http://sodipodi.sourceforge.net/DTD/sodipodi-0.dtd"
   xmlns:inkscape="http://www.inkscape.org/namespaces/inkscape"
   id="svg2"
   version="1.1"
   inkscape:version="0.91 r13725"
   xml:space="preserve"
   width="425.10001"
   height="425.10001"
   viewBox="0 0 425.10001 425.10001"
   sodipodi:docname="linear_interval_v6.svg"><metadata
     id="metadata8"><rdf:RDF><cc:Work
         rdf:about=""><dc:format>image/svg+xml</dc:format><dc:type
           rdf:resource="http://purl.org/dc/dcmitype/StillImage" /><dc:title></dc:title></cc:Work></rdf:RDF></metadata><defs
     id="defs6"><clipPath
       clipPathUnits="userSpaceOnUse"
       id="clipPath16"><path
         d="m 0,6.1035e-5 340.08,0 0,340.079998965 -340.08,0 L 0,6.1035e-5 Z"
         id="path18"
         inkscape:connector-curvature="0"
         style="clip-rule:evenodd" /></clipPath><clipPath
       clipPathUnits="userSpaceOnUse"
       id="clipPath64"><path
         d="m 69,46.68 241.32,0 0,271.68 -241.32,0 0,-271.68 z"
         id="path66"
         inkscape:connector-curvature="0"
         style="clip-rule:evenodd" /></clipPath><clipPath
       clipPathUnits="userSpaceOnUse"
       id="clipPath74"><path
         d="m 5.068e-6,-3.0518e-5 340.080004932,0 0,340.080000518 -340.080004932,0 0,-340.080000518 z"
         id="path76"
         inkscape:connector-curvature="0"
         style="clip-rule:evenodd" /></clipPath><clipPath
       clipPathUnits="userSpaceOnUse"
       id="clipPath86"><path
         d="m 5.068e-6,-3.0518e-5 340.080004932,0 0,340.080000518 -340.080004932,0 0,-340.080000518 z"
         id="path88"
         inkscape:connector-curvature="0"
         style="clip-rule:evenodd" /></clipPath><clipPath
       clipPathUnits="userSpaceOnUse"
       id="clipPath98"><path
         d="m 5.068e-6,-3.0518e-5 340.080004932,0 0,340.080000518 -340.080004932,0 0,-340.080000518 z"
         id="path100"
         inkscape:connector-curvature="0"
         style="clip-rule:evenodd" /></clipPath><clipPath
       clipPathUnits="userSpaceOnUse"
       id="clipPath110"><path
         d="m 5.068e-6,-3.0518e-5 340.080004932,0 0,340.080000518 -340.080004932,0 0,-340.080000518 z"
         id="path112"
         inkscape:connector-curvature="0"
         style="clip-rule:evenodd" /></clipPath><clipPath
       clipPathUnits="userSpaceOnUse"
       id="clipPath122"><path
         d="m 5.068e-6,-3.0518e-5 340.080004932,0 0,340.080000518 -340.080004932,0 0,-340.080000518 z"
         id="path124"
         inkscape:connector-curvature="0"
         style="clip-rule:evenodd" /></clipPath><clipPath
       clipPathUnits="userSpaceOnUse"
       id="clipPath134"><path
         d="m 5.068e-6,-3.0518e-5 340.080004932,0 0,340.080000518 -340.080004932,0 0,-340.080000518 z"
         id="path136"
         inkscape:connector-curvature="0"
         style="clip-rule:evenodd" /></clipPath><clipPath
       clipPathUnits="userSpaceOnUse"
       id="clipPath146"><path
         d="m 5.068e-6,-3.0518e-5 340.080004932,0 0,340.080000518 -340.080004932,0 0,-340.080000518 z"
         id="path148"
         inkscape:connector-curvature="0"
         style="clip-rule:evenodd" /></clipPath><clipPath
       clipPathUnits="userSpaceOnUse"
       id="clipPath158"><path
         d="m 5.068e-6,-3.0518e-5 340.080004932,0 0,340.080000518 -340.080004932,0 0,-340.080000518 z"
         id="path160"
         inkscape:connector-curvature="0"
         style="clip-rule:evenodd" /></clipPath><clipPath
       clipPathUnits="userSpaceOnUse"
       id="clipPath170"><path
         d="m 5.068e-6,-3.0518e-5 340.080004932,0 0,340.080000518 -340.080004932,0 0,-340.080000518 z"
         id="path172"
         inkscape:connector-curvature="0"
         style="clip-rule:evenodd" /></clipPath><clipPath
       clipPathUnits="userSpaceOnUse"
       id="clipPath182"><path
         d="m 5.068e-6,-3.0518e-5 340.080004932,0 0,340.080000518 -340.080004932,0 0,-340.080000518 z"
         id="path184"
         inkscape:connector-curvature="0"
         style="clip-rule:evenodd" /></clipPath><clipPath
       clipPathUnits="userSpaceOnUse"
       id="clipPath194"><path
         d="m 5.068e-6,-3.0518e-5 340.080004932,0 0,340.080000518 -340.080004932,0 0,-340.080000518 z"
         id="path196"
         inkscape:connector-curvature="0"
         style="clip-rule:evenodd" /></clipPath><clipPath
       clipPathUnits="userSpaceOnUse"
       id="clipPath206"><path
         d="m 5.068e-6,-3.0518e-5 340.080004932,0 0,340.080000518 -340.080004932,0 0,-340.080000518 z"
         id="path208"
         inkscape:connector-curvature="0"
         style="clip-rule:evenodd" /></clipPath><clipPath
       clipPathUnits="userSpaceOnUse"
       id="clipPath218"><path
         d="m 5.068e-6,-3.0518e-5 340.080004932,0 0,340.080000518 -340.080004932,0 0,-340.080000518 z"
         id="path220"
         inkscape:connector-curvature="0"
         style="clip-rule:evenodd" /></clipPath><clipPath
       clipPathUnits="userSpaceOnUse"
       id="clipPath230"><path
         d="m 5.068e-6,-3.0518e-5 340.080004932,0 0,340.080000518 -340.080004932,0 0,-340.080000518 z"
         id="path232"
         inkscape:connector-curvature="0"
         style="clip-rule:evenodd" /></clipPath><clipPath
       clipPathUnits="userSpaceOnUse"
       id="clipPath242"><path
         d="m 5.068e-6,-3.0518e-5 340.080004932,0 0,340.080000518 -340.080004932,0 0,-340.080000518 z"
         id="path244"
         inkscape:connector-curvature="0"
         style="clip-rule:evenodd" /></clipPath><clipPath
       clipPathUnits="userSpaceOnUse"
       id="clipPath254"><path
         d="m 5.068e-6,-3.0518e-5 340.080004932,0 0,340.080000518 -340.080004932,0 0,-340.080000518 z"
         id="path256"
         inkscape:connector-curvature="0"
         style="clip-rule:evenodd" /></clipPath><clipPath
       clipPathUnits="userSpaceOnUse"
       id="clipPath266"><path
         d="m 5.068e-6,-3.0518e-5 340.080004932,0 0,340.080000518 -340.080004932,0 0,-340.080000518 z"
         id="path268"
         inkscape:connector-curvature="0"
         style="clip-rule:evenodd" /></clipPath><clipPath
       clipPathUnits="userSpaceOnUse"
       id="clipPath282"><path
         d="m 5.068e-6,-3.0518e-5 340.080004932,0 0,340.080000518 -340.080004932,0 0,-340.080000518 z"
         id="path284"
         inkscape:connector-curvature="0"
         style="clip-rule:evenodd" /></clipPath><clipPath
       clipPathUnits="userSpaceOnUse"
       id="clipPath294"><path
         d="m 5.068e-6,-3.0518e-5 340.080004932,0 0,340.080000518 -340.080004932,0 0,-340.080000518 z"
         id="path296"
         inkscape:connector-curvature="0"
         style="clip-rule:evenodd" /></clipPath><clipPath
       clipPathUnits="userSpaceOnUse"
       id="clipPath306"><path
         d="m 5.068e-6,-3.0518e-5 340.080004932,0 0,340.080000518 -340.080004932,0 0,-340.080000518 z"
         id="path308"
         inkscape:connector-curvature="0"
         style="clip-rule:evenodd" /></clipPath></defs><sodipodi:namedview
     pagecolor="#ffffff"
     bordercolor="#666666"
     borderopacity="1"
     objecttolerance="10"
     gridtolerance="10"
     guidetolerance="10"
     inkscape:pageopacity="0"
     inkscape:pageshadow="2"
     inkscape:window-width="1304"
     inkscape:window-height="749"
     id="namedview4"
     showgrid="false"
     inkscape:zoom="1.110327"
     inkscape:cx="173.78228"
     inkscape:cy="232.60558"
     inkscape:window-x="58"
     inkscape:window-y="-4"
     inkscape:window-maximized="1"
     inkscape:current-layer="g10" /><g
     id="g10"
     inkscape:groupmode="layer"
     inkscape:label="linear_interval_v6"
     transform="matrix(1.25,0,0,-1.25,0,425.1)"><g
       id="g12"><g
         id="g14"
         clip-path="url(#clipPath16)"><path
           d="m 0,0 340.08,0 0,340.08 L 0,340.08 0,0 Z"
           style="fill:#ffffff;fill-opacity:1;fill-rule:evenodd;stroke:none"
           id="path20"
           inkscape:connector-curvature="0" /></g></g><path
       d="m 69.12,46.68 241.32,0 0,271.56 -241.32,0 0,-271.56 z"
       style="fill:none;stroke:#a6a6a6;stroke-width:0.72000003;stroke-linecap:butt;stroke-linejoin:round;stroke-miterlimit:10;stroke-dasharray:none;stroke-opacity:0.98039"
       id="path22"
       inkscape:connector-curvature="0" /><path
       d="m 69.12,46.68 0,271.56"
       style="fill:none;stroke:#bfbfbf;stroke-width:0.72000003;stroke-linecap:butt;stroke-linejoin:round;stroke-miterlimit:10;stroke-dasharray:none;stroke-opacity:1"
       id="path24"
       inkscape:connector-curvature="0" /><path
       d="m 69.12,46.68 241.32,0"
       style="fill:none;stroke:#bfbfbf;stroke-width:0.72000003;stroke-linecap:butt;stroke-linejoin:round;stroke-miterlimit:10;stroke-dasharray:none;stroke-opacity:1"
       id="path26"
       inkscape:connector-curvature="0" /><path
       d="m 76.544,134.24 c 0,-4.15 -3.358,-7.5 -7.5,-7.5 -4.142,0 -7.5,3.35 -7.5,7.5 0,4.14 3.358,7.5 7.5,7.5 4.142,0 7.5,-3.36 7.5,-7.5 z"
       style="fill:none;stroke:#000000;stroke-width:0.72000003;stroke-linecap:butt;stroke-linejoin:round;stroke-miterlimit:10;stroke-dasharray:none;stroke-opacity:1"
       id="path28"
       inkscape:connector-curvature="0" /><path
       d="m 136.9,188.84 c 0,-4.15 -3.35,-7.5 -7.5,-7.5 -4.14,0 -7.5,3.35 -7.5,7.5 0,4.14 3.36,7.5 7.5,7.5 4.15,0 7.5,-3.36 7.5,-7.5 z"
       style="fill:none;stroke:#000000;stroke-width:0.72000003;stroke-linecap:butt;stroke-linejoin:round;stroke-miterlimit:10;stroke-dasharray:none;stroke-opacity:1"
       id="path30"
       inkscape:connector-curvature="0" /><path
       d="m 197.14,226.4 c 0,-4.15 -3.35,-7.5 -7.5,-7.5 -4.14,0 -7.5,3.35 -7.5,7.5 0,4.14 3.36,7.5 7.5,7.5 4.15,0 7.5,-3.36 7.5,-7.5 z"
       style="fill:none;stroke:#000000;stroke-width:0.72000003;stroke-linecap:butt;stroke-linejoin:round;stroke-miterlimit:10;stroke-dasharray:none;stroke-opacity:1"
       id="path32"
       inkscape:connector-curvature="0" /><path
       d="m 257.5,248.6 c 0,-4.15 -3.35,-7.5 -7.5,-7.5 -4.14,0 -7.5,3.35 -7.5,7.5 0,4.14 3.36,7.5 7.5,7.5 4.15,0 7.5,-3.36 7.5,-7.5 z"
       style="fill:none;stroke:#000000;stroke-width:0.72000003;stroke-linecap:butt;stroke-linejoin:round;stroke-miterlimit:10;stroke-dasharray:none;stroke-opacity:1"
       id="path34"
       inkscape:connector-curvature="0" /><path
       d="m 317.86,270.44 c 0,-4.15 -3.35,-7.5 -7.5,-7.5 -4.14,0 -7.5,3.35 -7.5,7.5 0,4.14 3.36,7.5 7.5,7.5 4.15,0 7.5,-3.36 7.5,-7.5 z"
       style="fill:none;stroke:#000000;stroke-width:0.72000003;stroke-linecap:butt;stroke-linejoin:round;stroke-miterlimit:10;stroke-dasharray:none;stroke-opacity:1"
       id="path36"
       inkscape:connector-curvature="0" /><path
       d="m 76.544,149.96 c 0,-4.15 -3.358,-7.5 -7.5,-7.5 -4.142,0 -7.5,3.35 -7.5,7.5 0,4.14 3.358,7.5 7.5,7.5 4.142,0 7.5,-3.36 7.5,-7.5 z"
       style="fill:none;stroke:#000000;stroke-width:0.72000003;stroke-linecap:butt;stroke-linejoin:round;stroke-miterlimit:10;stroke-dasharray:none;stroke-opacity:1"
       id="path38"
       inkscape:connector-curvature="0" /><path
       d="m 76.544,148.04 c 0,-4.15 -3.358,-7.5 -7.5,-7.5 -4.142,0 -7.5,3.35 -7.5,7.5 0,4.14 3.358,7.5 7.5,7.5 4.142,0 7.5,-3.36 7.5,-7.5 z"
       style="fill:none;stroke:#000000;stroke-width:0.72000003;stroke-linecap:butt;stroke-linejoin:round;stroke-miterlimit:10;stroke-dasharray:none;stroke-opacity:1"
       id="path40"
       inkscape:connector-curvature="0" /><path
       d="m 167.02,205.4 c 0,-4.15 -3.35,-7.5 -7.5,-7.5 -4.14,0 -7.5,3.35 -7.5,7.5 0,4.14 3.36,7.5 7.5,7.5 4.15,0 7.5,-3.36 7.5,-7.5 z"
       style="fill:none;stroke:#000000;stroke-width:0.72000003;stroke-linecap:butt;stroke-linejoin:round;stroke-miterlimit:10;stroke-dasharray:none;stroke-opacity:1"
       id="path42"
       inkscape:connector-curvature="0" /><path
       d="m 227.38,215.48 c 0,-4.15 -3.35,-7.5 -7.5,-7.5 -4.14,0 -7.5,3.35 -7.5,7.5 0,4.14 3.36,7.5 7.5,7.5 4.15,0 7.5,-3.36 7.5,-7.5 z"
       style="fill:none;stroke:#000000;stroke-width:0.72000003;stroke-linecap:butt;stroke-linejoin:round;stroke-miterlimit:10;stroke-dasharray:none;stroke-opacity:1"
       id="path44"
       inkscape:connector-curvature="0" /><path
       d="m 287.62,235.04 c 0,-4.15 -3.35,-7.5 -7.5,-7.5 -4.14,0 -7.5,3.35 -7.5,7.5 0,4.14 3.36,7.5 7.5,7.5 4.15,0 7.5,-3.36 7.5,-7.5 z"
       style="fill:none;stroke:#000000;stroke-width:0.72000003;stroke-linecap:butt;stroke-linejoin:round;stroke-miterlimit:10;stroke-dasharray:none;stroke-opacity:1"
       id="path46"
       inkscape:connector-curvature="0" /><path
       d="m 106.66,147.32 c 0,-4.15 -3.35,-7.5 -7.496,-7.5 -4.142,0 -7.5,3.35 -7.5,7.5 0,4.14 3.358,7.5 7.5,7.5 4.146,0 7.496,-3.36 7.496,-7.5 z"
       style="fill:none;stroke:#000000;stroke-width:0.72000003;stroke-linecap:butt;stroke-linejoin:round;stroke-miterlimit:10;stroke-dasharray:none;stroke-opacity:1"
       id="path48"
       inkscape:connector-curvature="0" /><path
       d="m 167.02,205.4 c 0,-4.15 -3.35,-7.5 -7.5,-7.5 -4.14,0 -7.5,3.35 -7.5,7.5 0,4.14 3.36,7.5 7.5,7.5 4.15,0 7.5,-3.36 7.5,-7.5 z"
       style="fill:none;stroke:#000000;stroke-width:0.72000003;stroke-linecap:butt;stroke-linejoin:round;stroke-miterlimit:10;stroke-dasharray:none;stroke-opacity:1"
       id="path50"
       inkscape:connector-curvature="0" /><path
       d="m 227.38,215.48 c 0,-4.15 -3.35,-7.5 -7.5,-7.5 -4.14,0 -7.5,3.35 -7.5,7.5 0,4.14 3.36,7.5 7.5,7.5 4.15,0 7.5,-3.36 7.5,-7.5 z"
       style="fill:none;stroke:#000000;stroke-width:0.72000003;stroke-linecap:butt;stroke-linejoin:round;stroke-miterlimit:10;stroke-dasharray:none;stroke-opacity:1"
       id="path52"
       inkscape:connector-curvature="0" /><path
       d="m 287.62,235.04 c 0,-4.15 -3.35,-7.5 -7.5,-7.5 -4.14,0 -7.5,3.35 -7.5,7.5 0,4.14 3.36,7.5 7.5,7.5 4.15,0 7.5,-3.36 7.5,-7.5 z"
       style="fill:none;stroke:#000000;stroke-width:0.72000003;stroke-linecap:butt;stroke-linejoin:round;stroke-miterlimit:10;stroke-dasharray:none;stroke-opacity:1"
       id="path54"
       inkscape:connector-curvature="0" /><path
       d="m 106.66,147.32 c 0,-4.15 -3.35,-7.5 -7.496,-7.5 -4.142,0 -7.5,3.35 -7.5,7.5 0,4.14 3.358,7.5 7.5,7.5 4.146,0 7.496,-3.36 7.496,-7.5 z"
       style="fill:none;stroke:#000000;stroke-width:0.72000003;stroke-linecap:butt;stroke-linejoin:round;stroke-miterlimit:10;stroke-dasharray:none;stroke-opacity:1"
       id="path56"
       inkscape:connector-curvature="0" /><path
       d="m 76.544,146 c 0,-4.15 -3.358,-7.5 -7.5,-7.5 -4.142,0 -7.5,3.35 -7.5,7.5 0,4.14 3.358,7.5 7.5,7.5 4.142,0 7.5,-3.36 7.5,-7.5 z"
       style="fill:none;stroke:#000000;stroke-width:0.72000003;stroke-linecap:butt;stroke-linejoin:round;stroke-miterlimit:10;stroke-dasharray:none;stroke-opacity:1"
       id="path58"
       inkscape:connector-curvature="0" /><g
       id="g60"><g
         id="g62"
         clip-path="url(#clipPath64)"><path
           d="M 69.06,146.46 310.38,265.62"
           style="fill:none;stroke:#000000;stroke-width:1.55999994;stroke-linecap:round;stroke-linejoin:round;stroke-miterlimit:10;stroke-dasharray:4.68, 6.24;stroke-dashoffset:0;stroke-opacity:1"
           id="path68"
           inkscape:connector-curvature="0" /></g></g><g
       id="g70"><g
         id="g72"
         clip-path="url(#clipPath74)" /></g><g
       id="g94"><g
         id="g96"
         clip-path="url(#clipPath98)"><text
           transform="matrix(1,0,0,-1,49.296,42.048)"
           style="font-variant:normal;font-weight:normal;font-size:14.03999996px;font-family:Helvetica;-inkscape-font-specification:Helvetica;writing-mode:lr-tb;fill:#000000;fill-opacity:1;fill-rule:nonzero;stroke:none"
           id="text102"><tspan
             x="0"
             y="0"
             id="tspan104">0</tspan></text>
</g></g><g
       id="g106"><g
         id="g108"
         clip-path="url(#clipPath110)"><text
           transform="matrix(1,0,0,-1,37.608,80.856)"
           style="font-variant:normal;font-weight:normal;font-size:14.03999996px;font-family:Helvetica;-inkscape-font-specification:Helvetica;writing-mode:lr-tb;fill:#000000;fill-opacity:1;fill-rule:nonzero;stroke:none"
           id="text114"><tspan
             x="0 7.8062401 11.63916"
             y="0"
             sodipodi:role="line"
             id="tspan116">0.1</tspan></text>
</g></g><g
       id="g118"><g
         id="g120"
         clip-path="url(#clipPath122)"><text
           transform="matrix(1,0,0,-1,37.608,119.69)"
           style="font-variant:normal;font-weight:normal;font-size:14.03999996px;font-family:Helvetica;-inkscape-font-specification:Helvetica;writing-mode:lr-tb;fill:#000000;fill-opacity:1;fill-rule:nonzero;stroke:none"
           id="text126"><tspan
             x="0 7.8062401 11.63916"
             y="0"
             sodipodi:role="line"
             id="tspan128">0.2</tspan></text>
</g></g><g
       id="g130"><g
         id="g132"
         clip-path="url(#clipPath134)"><text
           transform="matrix(1,0,0,-1,37.608,158.5)"
           style="font-variant:normal;font-weight:normal;font-size:14.03999996px;font-family:Helvetica;-inkscape-font-specification:Helvetica;writing-mode:lr-tb;fill:#000000;fill-opacity:1;fill-rule:nonzero;stroke:none"
           id="text138"><tspan
             x="0 7.8062401 11.63916"
             y="0"
             sodipodi:role="line"
             id="tspan140">0.3</tspan></text>
</g></g><g
       id="g142"><g
         id="g144"
         clip-path="url(#clipPath146)"><text
           transform="matrix(1,0,0,-1,37.608,197.33)"
           style="font-variant:normal;font-weight:normal;font-size:14.03999996px;font-family:Helvetica;-inkscape-font-specification:Helvetica;writing-mode:lr-tb;fill:#000000;fill-opacity:1;fill-rule:nonzero;stroke:none"
           id="text150"><tspan
             x="0 7.8062401 11.63916"
             y="0"
             sodipodi:role="line"
             id="tspan152">0.4</tspan></text>
</g></g><g
       id="g154"><g
         id="g156"
         clip-path="url(#clipPath158)"><text
           transform="matrix(1,0,0,-1,37.608,236.14)"
           style="font-variant:normal;font-weight:normal;font-size:14.03999996px;font-family:Helvetica;-inkscape-font-specification:Helvetica;writing-mode:lr-tb;fill:#000000;fill-opacity:1;fill-rule:nonzero;stroke:none"
           id="text162"><tspan
             x="0 7.8062401 11.63916"
             y="0"
             sodipodi:role="line"
             id="tspan164">0.5</tspan></text>
</g></g><g
       id="g166"><g
         id="g168"
         clip-path="url(#clipPath170)"><text
           transform="matrix(1,0,0,-1,37.608,274.97)"
           style="font-variant:normal;font-weight:normal;font-size:14.06400013px;font-family:Helvetica;-inkscape-font-specification:Helvetica;writing-mode:lr-tb;fill:#000000;fill-opacity:1;fill-rule:nonzero;stroke:none"
           id="text174"><tspan
             x="0 7.8195839 11.644992"
             y="0"
             sodipodi:role="line"
             id="tspan176">0.6</tspan></text>
</g></g><g
       id="g178"><g
         id="g180"
         clip-path="url(#clipPath182)"><text
           transform="matrix(1,0,0,-1,37.608,313.78)"
           style="font-variant:normal;font-weight:normal;font-size:14.03999996px;font-family:Helvetica;-inkscape-font-specification:Helvetica;writing-mode:lr-tb;fill:#000000;fill-opacity:1;fill-rule:nonzero;stroke:none"
           id="text186"><tspan
             x="0 7.8062401 11.63916"
             y="0"
             sodipodi:role="line"
             id="tspan188">0.7</tspan></text>
</g></g><g
       id="g190"><g
         id="g192"
         clip-path="url(#clipPath194)"><text
           transform="matrix(1,0,0,-1,59.4,25.368)"
           style="font-variant:normal;font-weight:normal;font-size:14.06400013px;font-family:Helvetica;-inkscape-font-specification:Helvetica;writing-mode:lr-tb;fill:#000000;fill-opacity:1;fill-rule:nonzero;stroke:none"
           id="text198"><tspan
             x="0 7.8195839 11.644992"
             y="0"
             sodipodi:role="line"
             id="tspan200">0.2</tspan></text>
</g></g><g
       id="g202"><g
         id="g204"
         clip-path="url(#clipPath206)"><text
           transform="matrix(1,0,0,-1,180.1,25.368)"
           style="font-variant:normal;font-weight:normal;font-size:14.06400013px;font-family:Helvetica;-inkscape-font-specification:Helvetica;writing-mode:lr-tb;fill:#000000;fill-opacity:1;fill-rule:nonzero;stroke:none"
           id="text210"><tspan
             x="0 7.8195839 11.644992"
             y="0"
             sodipodi:role="line"
             id="tspan212">0.4</tspan></text>
</g></g><g
       id="g214"><g
         id="g216"
         clip-path="url(#clipPath218)"><text
           transform="matrix(1,0,0,-1,300.79,25.368)"
           style="font-variant:normal;font-weight:normal;font-size:14.06400013px;font-family:Helvetica;-inkscape-font-specification:Helvetica;writing-mode:lr-tb;fill:#000000;fill-opacity:1;fill-rule:nonzero;stroke:none"
           id="text222"><tspan
             x="0 7.8195839 11.644992"
             y="0"
             sodipodi:role="line"
             id="tspan224">0.6</tspan></text>
</g></g><g
       id="g226"><g
         id="g228"
         clip-path="url(#clipPath230)"><text
           transform="matrix(-4.4e-8,1,1,4.4e-8,17.904,107.4)"
           style="font-variant:normal;font-weight:normal;font-size:14.03999996px;font-family:Helvetica;-inkscape-font-specification:Helvetica;writing-mode:lr-tb;fill:#000000;fill-opacity:1;fill-rule:nonzero;stroke:none"
           id="text234"><tspan
             x="0 8.5222797 16.32852 24.13476 28.81008 40.449242 48.255482 51.37236 55.20528 65.286003 73.092239 80.898483 88.70472 96.510963 103.53096 107.51832 110.6352 117.47268 120.58956 124.5348 131.37228 136.04761 149.48389"
             y="0"
             sodipodi:role="line"
             id="tspan236">Thermal Conductivity(W/</tspan></text>
</g></g><g
       id="g238"><g
         id="g240"
         clip-path="url(#clipPath242)"><text
           transform="matrix(-4.4e-8,1,1,4.4e-8,17.904,260.93)"
           style="font-variant:normal;font-weight:normal;font-size:14.03999996px;font-family:Helvetica;-inkscape-font-specification:Helvetica;writing-mode:lr-tb;fill:#000000;fill-opacity:1;fill-rule:nonzero;stroke:none"
           id="text246"><tspan
             x="0"
             y="0"
             id="tspan248">°</tspan></text>
</g></g><g
       id="g250"><g
         id="g252"
         clip-path="url(#clipPath254)"><text
           transform="matrix(-4.4e-8,1,1,4.4e-8,17.904,266.57)"
           style="font-variant:normal;font-weight:normal;font-size:14.03999996px;font-family:Helvetica;-inkscape-font-specification:Helvetica;writing-mode:lr-tb;fill:#000000;fill-opacity:1;fill-rule:nonzero;stroke:none"
           id="text258"><tspan
             x="0 10.07998"
             y="0"
             sodipodi:role="line"
             id="tspan260">C)</tspan></text>
</g></g><g
       id="g262"><g
         id="g264"
         clip-path="url(#clipPath266)"><text
           transform="matrix(1,0,0,-1,171.67,7.2)"
           style="font-variant:normal;font-weight:normal;font-size:14.03999996px;font-family:Helvetica;-inkscape-font-specification:Helvetica;writing-mode:lr-tb;fill:#000000;fill-opacity:1;fill-rule:nonzero;stroke:none"
           id="text270"><tspan
             x="0 10.08072 17.886959 21.832199 24.94908"
             y="0"
             sodipodi:role="line"
             id="tspan272">Ratio</tspan></text>
</g></g><g
       id="g274"><path
         d="m 68.64,163.89 242.25,0.75"
         style="fill:none;stroke:#000000;stroke-width:0.47999999;stroke-linecap:butt;stroke-linejoin:miter;stroke-miterlimit:8;stroke-dasharray:3.84, 1.44;stroke-dashoffset:0;stroke-opacity:1"
         id="path276"
         inkscape:connector-curvature="0" /></g><text
       xml:space="preserve"
       style="font-style:normal;font-weight:normal;font-size:32px;line-height:125%;font-family:sans-serif;letter-spacing:0px;word-spacing:0px;fill:#000000;fill-opacity:1;stroke:none;stroke-width:1px;stroke-linecap:butt;stroke-linejoin:miter;stroke-opacity:1"
       x="171.48102"
       y="-277.39578"
       id="text4444"
       sodipodi:linespacing="125%"
       transform="scale(1,-1)"><tspan
         sodipodi:role="line"
         id="tspan4446"
         x="171.48102"
         y="-277.39578"
         style="font-size:14px">$y=0.77x+0.10$</tspan></text>
<text
       xml:space="preserve"
       style="font-style:normal;font-weight:normal;font-size:32px;line-height:125%;font-family:sans-serif;letter-spacing:0px;word-spacing:0px;fill:#000000;fill-opacity:1;stroke:none;stroke-width:1px;stroke-linecap:butt;stroke-linejoin:miter;stroke-opacity:1"
       x="180.84836"
       y="-262.60962"
       id="text4444-9"
       sodipodi:linespacing="125%"
       transform="scale(1,-1)"><tspan
         sodipodi:role="line"
         id="tspan4446-0"
         x="180.84836"
         y="-262.60962"
         style="font-size:14px">$R^2=0.92$</tspan></text>
<text
       xml:space="preserve"
       style="font-style:normal;font-weight:normal;font-size:32px;line-height:125%;font-family:sans-serif;letter-spacing:0px;word-spacing:0px;fill:#000000;fill-opacity:1;stroke:none;stroke-width:1px;stroke-linecap:butt;stroke-linejoin:miter;stroke-opacity:1"
       x="141.94016"
       y="-151.30678"
       id="text4466"
       sodipodi:linespacing="125%"
       transform="scale(1,-1)"><tspan
         sodipodi:role="line"
         id="tspan4468"
         x="141.94016"
         y="-151.30678"
         style="font-size:13px">Computer fans</tspan><tspan
         sodipodi:role="line"
         x="141.94016"
         y="-135.05678"
         style="font-size:13px"
         id="tspan4470">in Yip {\it et al.} \cite{yip}</tspan></text>
</g></svg>